<?xml version="1.0" encoding="UTF-8" standalone="no"?>
<svg
   xmlns:dc="http://purl.org/dc/elements/1.1/"
   xmlns:cc="http://creativecommons.org/ns#"
   xmlns:rdf="http://www.w3.org/1999/02/22-rdf-syntax-ns#"
   xmlns:svg="http://www.w3.org/2000/svg"
   xmlns="http://www.w3.org/2000/svg"
   xmlns:xlink="http://www.w3.org/1999/xlink"
   xmlns:sodipodi="http://sodipodi.sourceforge.net/DTD/sodipodi-0.dtd"
   xmlns:inkscape="http://www.inkscape.org/namespaces/inkscape"
   width="1400"
   height="600"
   id="svg2"
   version="1.1"
   inkscape:version="0.91 r13725"
   sodipodi:docname="QFT.svg"
   inkscape:export-filename="/home/hsk81/Desktop/Quantum Computing/qft-p/QFT.png"
   inkscape:export-xdpi="41.139999"
   inkscape:export-ydpi="41.139999">
  <metadata
     id="metadata276">
    <rdf:RDF>
      <cc:Work
         rdf:about="">
        <dc:format>image/svg+xml</dc:format>
        <dc:type
           rdf:resource="http://purl.org/dc/dcmitype/StillImage" />
      </cc:Work>
    </rdf:RDF>
  </metadata>
  <defs
     id="defs274" />
  <sodipodi:namedview
     pagecolor="#ffffff"
     bordercolor="#666666"
     borderopacity="1"
     objecttolerance="10"
     gridtolerance="10"
     guidetolerance="10"
     inkscape:pageopacity="0"
     inkscape:pageshadow="2"
     inkscape:window-width="1366"
     inkscape:window-height="744"
     id="namedview272"
     showgrid="false"
     inkscape:zoom="0.84588437"
     inkscape:cx="699.49585"
     inkscape:cy="299.51651"
     inkscape:window-x="0"
     inkscape:window-y="0"
     inkscape:window-maximized="1"
     inkscape:current-layer="g4" />
  <g
     transform="translate(-220 -60)"
     id="g4">
    <rect
       style="opacity:1;fill:#ffffff;fill-opacity:1"
       id="rect4466"
       width="1400"
       height="600.72876"
       x="220"
       y="59.271221" />
    <path
       d="M400 85c0-2.76 2.24-5 5-5h70c2.76 0 5 2.24 5 5v70c0 2.76-2.24 5-5 5h-70c-2.76 0-5-2.24-5-5z"
       stroke="#000"
       stroke-width="3"
       fill="#fff"
       id="path6"
       style="opacity:1" />
    <use
       xlink:href="#a"
       transform="matrix(1,0,0,1,405,85) translate(24.608024691358025 40.77777777777778)"
       id="use8"
       style="opacity:1" />
    <path
       d="M720 85c0-2.76 2.24-5 5-5h70c2.76 0 5 2.24 5 5v70c0 2.76-2.24 5-5 5h-70c-2.76 0-5-2.24-5-5z"
       stroke="#000"
       stroke-width="3"
       fill="#fff"
       id="path10"
       style="opacity:1" />
    <use
       xlink:href="#a"
       transform="matrix(1,0,0,1,725,85) translate(24.608024691358025 40.77777777777778)"
       id="use12"
       style="opacity:1" />
    <path
       d="M1040 85c0-2.76 2.24-5 5-5h70c2.76 0 5 2.24 5 5v70c0 2.76-2.24 5-5 5h-70c-2.76 0-5-2.24-5-5z"
       stroke="#000"
       stroke-width="3"
       fill="#fff"
       id="path14"
       style="opacity:1" />
    <use
       xlink:href="#a"
       transform="matrix(1,0,0,1,1045,85) translate(24.608024691358025 40.77777777777778)"
       id="use16"
       style="opacity:1" />
    <path
       d="M620 200c0 11.05-8.95 20-20 20s-20-8.95-20-20 8.95-20 20-20 20 8.95 20 20z"
       stroke="#666"
       stroke-width="3"
       fill="#333"
       id="path18"
       style="opacity:1" />
    <path
       d="M1360 85c0-2.76 2.24-5 5-5h70c2.76 0 5 2.24 5 5v70c0 2.76-2.24 5-5 5h-70c-2.76 0-5-2.24-5-5z"
       stroke="#000"
       stroke-width="3"
       fill="#fff"
       id="path22"
       style="opacity:1" />
    <use
       xlink:href="#a"
       transform="matrix(1,0,0,1,1365,85) translate(24.608024691358025 40.77777777777778)"
       id="use24"
       style="opacity:1" />
    <path
       d="M940 200c0 11.05-8.95 20-20 20s-20-8.95-20-20 8.95-20 20-20 20 8.95 20 20z"
       stroke="#666"
       stroke-width="3"
       fill="#333"
       id="path26"
       style="opacity:1" />
    <path
       d="M1260 200c0 11.05-8.95 20-20 20s-20-8.95-20-20 8.95-20 20-20 20 8.95 20 20z"
       stroke="#666"
       stroke-width="3"
       fill="#333"
       id="path30"
       style="opacity:1" />
    <path
       d="m 780.30659,360 c 0,11.05 -8.95,20 -20,20 -11.05,0 -20,-8.95 -20,-20 0,-11.05 8.95,-20 20,-20 11.05,0 20,8.95 20,20 z"
       id="path34"
       inkscape:connector-curvature="0"
       style="fill:#666666;stroke:#666666;stroke-width:3;opacity:1" />
    <path
       d="m 1100.3066,360 c 0,11.05 -8.95,20 -20,20 -11.05,0 -20,-8.95 -20,-20 0,-11.05 8.95,-20 20,-20 11.05,0 20,8.95 20,20 z"
       id="path38"
       inkscape:connector-curvature="0"
       style="fill:#666666;stroke:#666666;stroke-width:3;opacity:1" />
    <use
       xlink:href="#c"
       transform="translate(1073.6388,366.66232)"
       id="use40"
       x="0"
       y="0"
       width="100%"
       height="100%"
       style="opacity:1" />
    <path
       d="M940 520c0 11.05-8.95 20-20 20s-20-8.95-20-20 8.95-20 20-20 20 8.95 20 20z"
       stroke="#666"
       stroke-width="3"
       fill="#999"
       id="path42"
       style="opacity:1" />
    <use
       xlink:href="#d"
       transform="translate(593.25614,206.73844)"
       id="use44"
       x="0"
       y="0"
       width="100%"
       height="100%"
       style="opacity:1" />
    <path
       d="M480 120h40l65.53 64.93"
       stroke="#000"
       stroke-width="3"
       fill="none"
       id="path46"
       style="opacity:1" />
    <path
       d="M587.4 184.67l-2.04 1.7-.2.3-.7-.67 2.12-2.13z"
       id="path48"
       style="opacity:1" />
    <path
       d="M615.2 185.68L680 120h40"
       stroke="#000"
       stroke-width="3"
       fill="none"
       id="path50"
       style="opacity:1" />
    <path
       d="M616.26 186.73l-.8.82-1.83-2.2-.14-.08.63-.65z"
       id="path52"
       style="opacity:1" />
    <path
       d="M240 85c0-2.76 2.24-5 5-5h70c2.76 0 5 2.24 5 5v70c0 2.76-2.24 5-5 5h-70c-2.76 0-5-2.24-5-5z"
       fill="#fff"
       id="path54"
       style="opacity:1" />
    <path
       d="M268.33 80h23.34m11.66 0H315l2.95.96 1.8 2.46L320 85v11.67m0 11.66v23.34m0 11.66V155l-.96 2.95-2.46 1.8-1.58.25h-11.67m-11.66 0h-23.34m-11.66 0H245l-2.95-.96-1.8-2.46L240 155v-11.67m0-11.66v-23.34m0-11.66V85l.96-2.95 2.46-1.8L245 80h11.67"
       stroke="#000"
       stroke-width="3"
       fill="none"
       id="path56"
       style="opacity:1" />
    <use
       xlink:href="#e"
       transform="matrix(1,0,0,1,245,85) translate(10.76543209876543 40.77777777777778)"
       id="use58"
       style="opacity:1" />
    <path
       d="M320 120h80"
       stroke="#000"
       stroke-width="3"
       fill="none"
       id="path60"
       style="opacity:1" />
    <path
       d="M320 121.5v-3z"
       id="path62"
       style="opacity:1" />
    <path
       d="M240 245c0-2.76 2.24-5 5-5h70c2.76 0 5 2.24 5 5v70c0 2.76-2.24 5-5 5h-70c-2.76 0-5-2.24-5-5z"
       fill="#fff"
       id="path64"
       style="opacity:1" />
    <path
       d="M268.33 240h23.34m11.66 0H315l2.95.96 1.8 2.46.25 1.58v11.67m0 11.66v23.34m0 11.66V315l-.96 2.95-2.46 1.8-1.58.25h-11.67m-11.66 0h-23.34m-11.66 0H245l-2.95-.96-1.8-2.46L240 315v-11.67m0-11.66v-23.34m0-11.66V245l.96-2.95 2.46-1.8L245 240h11.67"
       stroke="#000"
       stroke-width="3"
       fill="none"
       id="path66"
       style="opacity:1" />
    <use
       xlink:href="#f"
       transform="matrix(1,0,0,1,245,245) translate(10.76543209876543 40.77777777777778)"
       id="use68"
       style="opacity:1" />
    <path
       d="M614.1 214.1l131.8 131.8"
       stroke="#000"
       stroke-width="3"
       fill="none"
       id="path70"
       style="opacity:1" />
    <path
       d="M613.03 215.15l-.1-.1 1.16-.96zm2.12-2.12l-.28.28.23-.32zM744.9 347.02l-.05-.05.28-.28zm2.17-2.07l-1.16.96 1.07-1.05z"
       id="path72"
       style="opacity:1" />
    <path
       d="M320 280h200l65.55-64.8"
       stroke="#000"
       stroke-width="3"
       fill="none"
       id="path74"
       style="opacity:1" />
    <path
       d="M586.37 214.64l1.1.78-.87.86-2.1-2.14.8-.8z"
       id="path76"
       style="opacity:1" />
    <path
       d="M800 120h40l65.34 65.1"
       stroke="#000"
       stroke-width="3"
       fill="none"
       id="path78"
       style="opacity:1" />
    <path
       d="M907.2 184.83l-1.84 1.54-.36.5-.72-.72 2.12-2.12z"
       id="path80"
       style="opacity:1" />
    <path
       d="M1120 120h40l64.5 65.86"
       stroke="#000"
       stroke-width="3"
       fill="none"
       id="path82"
       style="opacity:1" />
    <path
       d="M1226.32 185.57l-.96.8-1.04 1.45-.9-.9 2.15-2.1z"
       id="path84"
       style="opacity:1" />
    <path
       d="M934.95 185.4L1000 120h40"
       stroke="#000"
       stroke-width="3"
       fill="none"
       id="path86"
       style="opacity:1" />
    <path
       d="M936.02 186.44l-.8.8-1.6-1.88-.44-.32.7-.7z"
       id="path88"
       style="opacity:1" />
    <path
       d="M1253.28 183.88L1320 120h40"
       stroke="#000"
       stroke-width="3"
       fill="none"
       id="path90"
       style="opacity:1" />
    <path
       d="M1254.32 184.96l-.57.55-.12-.14-2.32-1.67.95-.9z"
       id="path92"
       style="opacity:1" />
    <path
       d="M774.1 374.1l131.8 131.8"
       stroke="#000"
       stroke-width="3"
       fill="none"
       id="path94"
       style="opacity:1" />
    <path
       d="M773.03 375.15l-.1-.1 1.16-.96zm2.12-2.12l-.28.28.23-.32zM904.9 507.02l-.05-.05.28-.28zm2.17-2.07l-1.16.96 1.07-1.05z"
       id="path96"
       style="opacity:1" />
    <path
       d="M935.37 214.32L1065.2 345.2"
       stroke="#000"
       stroke-width="3"
       fill="none"
       id="path98"
       style="opacity:1" />
    <path
       d="M936.44 213.26l-2.13 2.1-.8-.8 1.14-.93.9-1.27zM1067.06 344.95l-1.7 1.42-.47.65-.76-.76 2.13-2.1z"
       id="path100"
       style="opacity:1" />
    <path
       d="M934.1 505.9l131.8-131.8"
       stroke="#000"
       stroke-width="3"
       fill="none"
       id="path102"
       style="opacity:1" />
    <path
       d="M935.15 506.97l-.1.1-.96-1.16zm-1.84-1.84l-.32-.23.05-.05zM1067.02 375.1l-.05.05-.28-.28zm-1.1-1l-1.07-1.07.1-.1z"
       id="path104"
       style="opacity:1" />
    <path
       d="M1095.28 345.78l130.4-130.4"
       stroke="#000"
       stroke-width="3"
       fill="none"
       id="path106"
       style="opacity:1" />
    <path
       d="M1096.34 346.84l-.8.8-1.9-2.28-.04-.02.62-.62zM1226.37 214.64l1.26.9-.9.9-2.1-2.13.8-.8z"
       id="path108"
       style="opacity:1" />
    <path
       d="M774.32 344.63l130.9-129.82"
       stroke="#000"
       stroke-width="3"
       fill="none"
       id="path110"
       style="opacity:1" />
    <path
       d="M775.37 345.7l-.8.8-.94-1.14-1.27-.9.9-.9zM906.37 214.64l.67.48-.77.76-2.1-2.13.8-.8z"
       id="path112"
       style="opacity:1" />
    <path
       d="M240 405c0-2.76 2.24-5 5-5h70c2.76 0 5 2.24 5 5v70c0 2.76-2.24 5-5 5h-70c-2.76 0-5-2.24-5-5z"
       fill="#fff"
       id="path114"
       style="opacity:1" />
    <path
       d="M268.33 400h23.34m11.66 0H315l2.95.96 1.8 2.46.25 1.58v11.67m0 11.66v23.34m0 11.66V475l-.96 2.95-2.46 1.8-1.58.25h-11.67m-11.66 0h-23.34m-11.66 0H245l-2.95-.96-1.8-2.46L240 475v-11.67m0-11.66v-23.34m0-11.66V405l.96-2.95 2.46-1.8L245 400h11.67"
       stroke="#000"
       stroke-width="3"
       fill="none"
       id="path116"
       style="opacity:1" />
    <use
       xlink:href="#g"
       transform="matrix(1,0,0,1,245,405) translate(10.76543209876543 40.77777777777778)"
       id="use118"
       style="opacity:1" />
    <path
       d="M320 440h360l64.64-65.88"
       stroke="#000"
       stroke-width="3"
       fill="none"
       id="path120"
       style="opacity:1" />
    <path
       d="m 746.60659,374.56 -0.6,0.6 -2.13,-2.1 0.8,-0.8 z"
       id="path122"
       inkscape:connector-curvature="0"
       style="opacity:1" />
    <path
       d="M240 565c0-2.76 2.24-5 5-5h70c2.76 0 5 2.24 5 5v70c0 2.76-2.24 5-5 5h-70c-2.76 0-5-2.24-5-5z"
       fill="#fff"
       id="path124"
       style="opacity:1" />
    <path
       d="M268.33 560h23.34m11.66 0H315l2.95.96 1.8 2.46.25 1.58v11.67m0 11.66v23.34m0 11.66V635l-.96 2.95-2.46 1.8-1.58.25h-11.67m-11.66 0h-23.34m-11.66 0H245l-2.95-.96-1.8-2.46L240 635v-11.67m0-11.66v-23.34m0-11.66V565l.96-2.95 2.46-1.8L245 560h11.67"
       stroke="#000"
       stroke-width="3"
       fill="none"
       id="path126"
       style="opacity:1" />
    <use
       xlink:href="#h"
       transform="matrix(1,0,0,1,245,565) translate(10.76543209876543 40.77777777777778)"
       id="use128"
       style="opacity:1" />
    <path
       d="M320 600h520l64.64-65.87"
       stroke="#000"
       stroke-width="3"
       fill="none"
       id="path130"
       style="opacity:1" />
    <path
       d="M906.3 534.57l-.6.6-2.13-2.1.8-.82z"
       id="path132"
       style="opacity:1" />
    <path
       d="M1520 85c0-2.76 2.24-5 5-5h70c2.76 0 5 2.24 5 5v70c0 2.76-2.24 5-5 5h-70c-2.76 0-5-2.24-5-5z"
       fill="#fff"
       id="path134"
       style="opacity:1" />
    <path
       d="M1548.33 80h23.34m11.66 0H1595l2.95.96 1.8 2.46.25 1.58v11.67m0 11.66v23.34m0 11.66V155l-.96 2.95-2.46 1.8-1.58.25h-11.67m-11.66 0h-23.34m-11.66 0H1525l-2.95-.96-1.8-2.46-.25-1.58v-11.67m0-11.66v-23.34m0-11.66V85l.96-2.95 2.46-1.8L1525 80h11.67"
       stroke="#000"
       stroke-width="3"
       fill="none"
       id="path136"
       style="opacity:1" />
    <use
       xlink:href="#i"
       transform="matrix(1,0,0,1,1525,85) translate(10.76543209876543 40.77777777777778)"
       id="use138"
       style="opacity:1" />
    <path
       d="M1440 120h80"
       stroke="#000"
       stroke-width="3"
       fill="none"
       id="path140"
       style="opacity:1" />
    <path
       d="M1440 121.5v-3zM1520 120l-14.27 4.64v-9.28z"
       id="path142"
       style="opacity:1" />
    <path
       d="M1520 118.42v3.16l-15.77 5.12v-13.4zm-12.77 4.15l7.92-2.57-7.92-2.57z"
       id="path144"
       style="opacity:1" />
    <path
       d="M1520 245c0-2.76 2.24-5 5-5h70c2.76 0 5 2.24 5 5v70c0 2.76-2.24 5-5 5h-70c-2.76 0-5-2.24-5-5z"
       fill="#fff"
       id="path146"
       style="opacity:1" />
    <path
       d="M1548.33 240h23.34m11.66 0H1595l2.95.96 1.8 2.46.25 1.58v11.67m0 11.66v23.34m0 11.66V315l-.96 2.95-2.46 1.8-1.58.25h-11.67m-11.66 0h-23.34m-11.66 0H1525l-2.95-.96-1.8-2.46-.25-1.58v-11.67m0-11.66v-23.34m0-11.66V245l.96-2.95 2.46-1.8 1.58-.25h11.67"
       stroke="#000"
       stroke-width="3"
       fill="none"
       id="path148"
       style="opacity:1" />
    <use
       xlink:href="#j"
       transform="matrix(1,0,0,1,1525,245) translate(10.76543209876543 40.77777777777778)"
       id="use150"
       style="opacity:1" />
    <path
       d="M1520 405c0-2.76 2.24-5 5-5h70c2.76 0 5 2.24 5 5v70c0 2.76-2.24 5-5 5h-70c-2.76 0-5-2.24-5-5z"
       fill="#fff"
       id="path152"
       style="opacity:1" />
    <path
       d="M1548.33 400h23.34m11.66 0H1595l2.95.96 1.8 2.46.25 1.58v11.67m0 11.66v23.34m0 11.66V475l-.96 2.95-2.46 1.8-1.58.25h-11.67m-11.66 0h-23.34m-11.66 0H1525l-2.95-.96-1.8-2.46-.25-1.58v-11.67m0-11.66v-23.34m0-11.66V405l.96-2.95 2.46-1.8 1.58-.25h11.67"
       stroke="#000"
       stroke-width="3"
       fill="none"
       id="path154"
       style="opacity:1" />
    <use
       xlink:href="#k"
       transform="matrix(1,0,0,1,1525,405) translate(10.76543209876543 40.77777777777778)"
       id="use156"
       style="opacity:1" />
    <path
       d="M1520 565c0-2.76 2.24-5 5-5h70c2.76 0 5 2.24 5 5v70c0 2.76-2.24 5-5 5h-70c-2.76 0-5-2.24-5-5z"
       fill="#fff"
       id="path158"
       style="opacity:1" />
    <path
       d="M1548.33 560h23.34m11.66 0H1595l2.95.96 1.8 2.46.25 1.58v11.67m0 11.66v23.34m0 11.66V635l-.96 2.95-2.46 1.8-1.58.25h-11.67m-11.66 0h-23.34m-11.66 0H1525l-2.95-.96-1.8-2.46-.25-1.58v-11.67m0-11.66v-23.34m0-11.66V565l.96-2.95 2.46-1.8 1.58-.25h11.67"
       stroke="#000"
       stroke-width="3"
       fill="none"
       id="path160"
       style="opacity:1" />
    <use
       xlink:href="#l"
       transform="matrix(1,0,0,1,1525,565) translate(10.76543209876543 40.77777777777778)"
       id="use162"
       style="opacity:1" />
    <path
       d="M1256.67 214.23L1320 280h200"
       stroke="#000"
       stroke-width="3"
       fill="none"
       id="path164"
       style="opacity:1" />
    <path
       d="M1257.75 213.2l-2.16 2.07-1.3-1.35.34-.3 1.5-2.1zM1520 280l-14.27 4.64v-9.28z"
       id="path166"
       style="opacity:1" />
    <path
       d="M1520 278.42v3.16l-15.77 5.12v-13.4zm-12.77 4.15l7.92-2.57-7.92-2.57z"
       id="path168"
       style="opacity:1" />
    <path
       d="M1096.4 374.58L1160 440h360"
       stroke="#000"
       stroke-width="3"
       fill="none"
       id="path170"
       style="opacity:1" />
    <path
       d="M1097.5 373.54l-2.16 2.1-1.4-1.44.7-.57 1.25-1.74zM1520 440l-14.27 4.64v-9.28z"
       id="path172"
       style="opacity:1" />
    <path
       d="M1520 438.42v3.16l-15.77 5.12v-13.4zm-12.77 4.15l7.92-2.57-7.92-2.57z"
       id="path174"
       style="opacity:1" />
    <path
       d="M936.1 535l63.9 65h520"
       stroke="#000"
       stroke-width="3"
       fill="none"
       id="path176"
       style="opacity:1" />
    <path
       d="M937.18 533.95l-2.14 2.1-1.5-1.5 1.1-.92.94-1.3zM1520 600l-14.27 4.64v-9.28z"
       id="path178"
       style="opacity:1" />
    <path
       d="M1520 598.42v3.16l-15.77 5.12v-13.4zm-12.77 4.15l7.92-2.57-7.92-2.57z"
       id="path180"
       style="opacity:1" />
    <defs
       id="defs182">
      <path
         d="M186 0v-106H76V0H24v-248h52v99h110v-99h50V0h-50"
         id="m" />
      <use
         transform="matrix(0.08024691358024691,0,0,0.08024691358024691,0,0)"
         xlink:href="#m"
         id="a" />
      <path
         fill="#fff"
         d="M788-691c191 26 337 112 337 315 0 286-214 399-510 399-306 0-483-128-522-391l286-25c18 124 91 190 235 188 132-2 223-58 223-188 0-176-191-182-378-179v-227c176 5 345-9 345-176 0-115-82-171-200-171s-198 55-206 169l-281-20c34-252 213-373 492-373 224 0 381 74 451 224 20 43 29 89 29 136 0 195-130 279-301 315v4"
         id="n" />
      <use
         transform="matrix(0.010850694444444444,0,0,0.010850694444444444,0,0)"
         xlink:href="#n"
         id="b" />
      <path
         fill="#fff"
         d="M135-968c34-256 187-402 480-402 217 0 371 75 441 220 45 93 40 219-8 308-114 212-348 323-508 488-38 39-66 80-85 123h654V0H123v-195c112-245 321-399 515-560 57-48 107-96 142-157 14-26 22-53 22-80-1-104-73-156-185-154-131 2-181 74-199 194"
         id="o" />
      <use
         transform="matrix(0.010850694444444444,0,0,0.010850694444444444,0,0)"
         xlink:href="#o"
         id="c" />
      <path
         fill="#fff"
         d="M138-1120c207-4 339-93 415-229h266v1140h323V0H149v-209h389v-891c-70 121-216 187-400 194v-214"
         id="p" />
      <use
         transform="matrix(0.010850694444444444,0,0,0.010850694444444444,0,0)"
         xlink:href="#p"
         id="d" />
      <path
         d="M27 80v-341h46V80H27"
         id="q" />
      <path
         d="M144 0l-44-69L55 0H2l70-98-66-92h53l41 62 40-62h54l-67 91 71 99h-54"
         id="r" />
      <path
         d="M128-127c34 4 56 21 59 58 7 91-148 94-172 28-4-9-6-17-7-26l51-5c1 24 16 35 40 36 23 0 39-12 38-36-1-31-31-36-65-34v-40c32 2 59-3 59-33 0-20-13-33-34-33s-33 13-35 32l-50-3c6-44 37-68 86-68 50 0 83 20 83 66 0 35-22 52-53 58"
         id="s" />
      <path
         d="M127-113L77 47H29l50-160-50-160h48"
         id="t" />
      <g
         id="e">
        <use
           transform="matrix(0.08024691358024691,0,0,0.08024691358024691,0,0)"
           xlink:href="#q"
           id="use197" />
        <use
           transform="matrix(0.08024691358024691,0,0,0.08024691358024691,8.024691358024691,0)"
           xlink:href="#r"
           id="use199" />
        <use
           transform="matrix(0.056172839506172835,0,0,0.056172839506172835,24.074074074074076,4.044444444444444)"
           xlink:href="#s"
           id="use201" />
        <use
           transform="matrix(0.08024691358024691,0,0,0.08024691358024691,35.308641975308646,0)"
           xlink:href="#t"
           id="use203" />
      </g>
      <path
         d="M182-182c0 78-84 86-111 141h115V0H12c-6-101 99-100 120-180 1-22-12-31-33-32-23 0-32 14-35 34l-49-3c5-45 32-70 84-70 51 0 83 22 83 69"
         id="u" />
      <g
         id="f">
        <use
           transform="matrix(0.08024691358024691,0,0,0.08024691358024691,0,0)"
           xlink:href="#q"
           id="use207" />
        <use
           transform="matrix(0.08024691358024691,0,0,0.08024691358024691,8.024691358024691,0)"
           xlink:href="#r"
           id="use209" />
        <use
           transform="matrix(0.056172839506172835,0,0,0.056172839506172835,24.074074074074076,4.044444444444444)"
           xlink:href="#u"
           id="use211" />
        <use
           transform="matrix(0.08024691358024691,0,0,0.08024691358024691,35.308641975308646,0)"
           xlink:href="#t"
           id="use213" />
      </g>
      <path
         d="M23 0v-37h61v-169l-59 37v-38l62-41h46v211h57V0H23"
         id="v" />
      <g
         id="g">
        <use
           transform="matrix(0.08024691358024691,0,0,0.08024691358024691,0,0)"
           xlink:href="#q"
           id="use217" />
        <use
           transform="matrix(0.08024691358024691,0,0,0.08024691358024691,8.024691358024691,0)"
           xlink:href="#r"
           id="use219" />
        <use
           transform="matrix(0.056172839506172835,0,0,0.056172839506172835,24.074074074074076,4.044444444444444)"
           xlink:href="#v"
           id="use221" />
        <use
           transform="matrix(0.08024691358024691,0,0,0.08024691358024691,35.308641975308646,0)"
           xlink:href="#t"
           id="use223" />
      </g>
      <path
         d="M101-251c68 0 84 54 84 127C185-50 166 4 99 4S15-52 14-124c-1-75 17-127 87-127zm-1 216c37-5 36-46 36-89s4-89-36-89c-39 0-36 45-36 89 0 43-3 85 36 89"
         id="w" />
      <g
         id="h">
        <use
           transform="matrix(0.08024691358024691,0,0,0.08024691358024691,0,0)"
           xlink:href="#q"
           id="use227" />
        <use
           transform="matrix(0.08024691358024691,0,0,0.08024691358024691,8.024691358024691,0)"
           xlink:href="#r"
           id="use229" />
        <use
           transform="matrix(0.056172839506172835,0,0,0.056172839506172835,24.074074074074076,4.044444444444444)"
           xlink:href="#w"
           id="use231" />
        <use
           transform="matrix(0.08024691358024691,0,0,0.08024691358024691,35.308641975308646,0)"
           xlink:href="#t"
           id="use233" />
      </g>
      <path
         d="M123 10C108 53 80 86 19 72V37c35 8 53-11 59-39L3-190h52l48 148c12-52 28-100 44-148h51"
         id="x" />
      <g
         id="i">
        <use
           transform="matrix(0.08024691358024691,0,0,0.08024691358024691,0,0)"
           xlink:href="#q"
           id="use237" />
        <use
           transform="matrix(0.08024691358024691,0,0,0.08024691358024691,8.024691358024691,0)"
           xlink:href="#x"
           id="use239" />
        <use
           transform="matrix(0.056172839506172835,0,0,0.056172839506172835,24.074074074074076,4.044444444444444)"
           xlink:href="#s"
           id="use241" />
        <use
           transform="matrix(0.08024691358024691,0,0,0.08024691358024691,35.308641975308646,0)"
           xlink:href="#t"
           id="use243" />
      </g>
      <g
         id="j">
        <use
           transform="matrix(0.08024691358024691,0,0,0.08024691358024691,0,0)"
           xlink:href="#q"
           id="use246" />
        <use
           transform="matrix(0.08024691358024691,0,0,0.08024691358024691,8.024691358024691,0)"
           xlink:href="#x"
           id="use248" />
        <use
           transform="matrix(0.056172839506172835,0,0,0.056172839506172835,24.074074074074076,4.044444444444444)"
           xlink:href="#u"
           id="use250" />
        <use
           transform="matrix(0.08024691358024691,0,0,0.08024691358024691,35.308641975308646,0)"
           xlink:href="#t"
           id="use252" />
      </g>
      <g
         id="k">
        <use
           transform="matrix(0.08024691358024691,0,0,0.08024691358024691,0,0)"
           xlink:href="#q"
           id="use255" />
        <use
           transform="matrix(0.08024691358024691,0,0,0.08024691358024691,8.024691358024691,0)"
           xlink:href="#x"
           id="use257" />
        <use
           transform="matrix(0.056172839506172835,0,0,0.056172839506172835,24.074074074074076,4.044444444444444)"
           xlink:href="#v"
           id="use259" />
        <use
           transform="matrix(0.08024691358024691,0,0,0.08024691358024691,35.308641975308646,0)"
           xlink:href="#t"
           id="use261" />
      </g>
      <g
         id="l">
        <use
           transform="matrix(0.08024691358024691,0,0,0.08024691358024691,0,0)"
           xlink:href="#q"
           id="use264" />
        <use
           transform="matrix(0.08024691358024691,0,0,0.08024691358024691,8.024691358024691,0)"
           xlink:href="#x"
           id="use266" />
        <use
           transform="matrix(0.056172839506172835,0,0,0.056172839506172835,24.074074074074076,4.044444444444444)"
           xlink:href="#w"
           id="use268" />
        <use
           transform="matrix(0.08024691358024691,0,0,0.08024691358024691,35.308641975308646,0)"
           xlink:href="#t"
           id="use270" />
      </g>
    </defs>
    <use
       xlink:href="#b"
       transform="translate(913.08826,527.61644)"
       id="use20"
       x="0"
       y="0"
       width="100%"
       height="100%"
       style="opacity:1" />
    <use
       xlink:href="#c"
       transform="translate(753.86158,366.75319)"
       id="use40-0"
       x="0"
       y="0"
       width="100%"
       height="100%"
       style="opacity:1" />
    <use
       xlink:href="#d"
       transform="translate(913.09083,206.66762)"
       id="use44-2"
       x="0"
       y="0"
       width="100%"
       height="100%"
       style="opacity:1" />
    <use
       xlink:href="#d"
       transform="translate(1233.4539,207.42869)"
       id="use44-2-9"
       x="0"
       y="0"
       width="100%"
       height="100%"
       style="opacity:1" />
  </g>
</svg>
